<svg width="944" height="315" viewBox="0 0 944 315" fill="none" xmlns="http://www.w3.org/2000/svg">
<path d="M312 129.72C324 129.4 326.56 124.28 326.56 102.68V47.32C326.56 25.72 324 20.44 312 20.12V18.84C318.72 19.16 327.68 19.16 331.2 19.16H341.28C344.8 19.16 353.76 19.16 360.48 18.84V20.12C348.48 20.44 345.92 25.72 345.92 47.32V81.4L371.36 52.6C382.24 40.12 388.16 30.84 388.16 25.56C388.16 20.44 384.16 20.44 372.48 20.12V18.84C382.56 19 410.08 19 419.52 18.84V20.12L416.96 20.28C408.32 20.92 396.8 26.84 372.8 53.56L370.88 55.8L408.16 119.32C413.12 127.64 417.12 129.24 428 129.72V131C414.4 130.68 389.12 130.68 375.36 131V129.72C388.48 128.92 390.24 127.48 385.92 119.96L357.28 71L345.92 83.64V102.68C345.92 124.28 348.48 129.4 360.48 129.72V131.16C353.76 130.84 344.8 130.84 341.28 130.84H331.2C327.68 130.84 318.72 130.84 312 131.16V129.72ZM431.714 129.72C437.954 129.4 443.074 128.76 443.074 120.28V70.2C443.074 62.36 438.114 60.76 430.914 60.76V59.48C437.474 59.64 455.394 57.72 459.874 56.92H460.994V120.28C460.994 128.76 466.114 129.4 472.354 129.72V131C468.034 130.84 436.034 130.84 431.714 131V129.72ZM439.714 35.32C439.714 29.24 444.834 24.12 451.234 24.12C457.314 24.12 462.434 29.24 462.434 35.32C462.434 41.72 457.314 46.84 451.234 46.84C444.834 46.84 439.714 41.72 439.714 35.32ZM503.232 132.28C489.312 132.28 489.312 119.96 489.312 112.92V61.08H479.072V59.48H489.312V52.76C495.552 49.56 501.632 45.56 505.952 39H507.232V59.48H528.672L528.512 61.08H507.232V108.12C507.232 119.96 507.552 123.96 512.192 123.96C517.472 123.96 521.793 117.72 524.192 110.04L525.153 110.36C523.233 117.4 518.433 132.28 503.232 132.28ZM580.358 80.76C580.358 69.24 576.838 59 565.638 59C559.718 59 554.918 61.56 550.918 65.88C554.758 66.84 558.278 70.2 558.278 75.16C558.278 80.6 554.278 84.76 548.518 84.76C542.758 84.76 538.758 80.44 538.758 75C538.758 65.72 550.598 56.92 571.398 56.92C594.758 56.92 598.278 67.96 598.278 82.52V119C598.278 126.84 603.238 128.28 610.438 128.44V129.72C603.878 129.4 585.958 131.48 581.478 132.28H580.358V118.36C573.958 125.72 565.478 132.28 556.038 132.28C548.358 132.28 538.118 128.12 538.118 115.8C538.118 100.6 553.638 95.32 580.358 90.2V80.76ZM556.998 112.12C556.998 120.6 560.038 124.12 566.278 124.12C570.598 124.12 574.918 121.88 580.358 116.12V91.8C561.638 95.64 556.998 102.52 556.998 112.12ZM661.15 129.72C666.27 129.4 670.91 128.76 670.91 120.28V75C670.91 68.28 669.63 63.16 662.91 63.16C657.95 63.16 651.07 65.88 646.11 69.72V120.28C646.11 128.76 649.63 129.4 655.87 129.72V131C651.55 130.84 621.15 130.84 616.83 131V129.72C623.07 129.4 628.19 128.76 628.19 120.28V70.2C628.19 62.36 623.39 60.76 616.19 60.76V59.48C622.75 59.64 640.51 57.72 644.99 56.92H646.11V68.12H646.43C652.51 62.84 662.43 56.92 671.55 56.92C683.39 56.92 688.83 63.64 688.83 73.56V120.28C688.83 128.76 693.95 129.4 700.19 129.72V131C695.87 130.84 664.67 130.84 661.15 131V129.72ZM744.609 132.28C723.329 132.28 709.569 118.2 709.569 95.96C709.569 72.6 724.449 56.92 746.209 56.92C767.169 56.92 780.449 71 780.449 93.72C780.449 117.4 766.369 132.28 744.609 132.28ZM728.769 93.72C728.769 116.28 735.489 131 745.249 131C754.689 131 761.249 116.76 761.249 95.8C761.249 73.88 753.889 58.2 743.969 58.2C734.689 58.2 728.769 71.8 728.769 93.72ZM353.24 281.96C330.08 281.96 312.8 265.52 312.8 239C312.8 211.16 331.76 195.08 354.56 195.08C377.36 195.08 394.52 211.16 394.52 238.04C394.52 265.76 376.28 281.96 353.24 281.96ZM325.16 238.52C325.16 262.64 336.92 280.88 353.84 280.88C370.28 280.88 382.28 263.6 382.28 238.52C382.28 214.04 370.88 196.16 353.96 196.16C337.4 196.16 325.16 213.8 325.16 238.52ZM423.049 281.96C412.129 281.96 410.689 274.16 410.689 269.6V235.28C410.689 229.4 407.089 228.56 401.689 228.56V227.6C406.609 227.72 416.929 226.28 420.289 225.68H421.129V268.4C421.129 272.84 421.489 277.64 427.609 277.64C432.409 277.64 438.409 275 441.889 272.36V235.28C441.889 229.4 438.289 228.56 432.889 228.44V227.48C437.809 227.72 448.129 226.28 451.489 225.56H452.329V272.24C452.329 278.12 455.929 279.08 461.329 279.08V280.04C456.409 279.92 446.089 281.24 442.729 281.96H441.889V273.56H441.649C438.289 276.44 430.369 281.96 423.049 281.96ZM482.516 281.96C473.516 281.96 473.516 273.56 473.516 268.88V228.68H465.836V227.48H473.516V222.56C477.356 219.92 480.236 217.16 482.996 212.24H483.956V227.48H500.036L499.916 228.68H483.956V265.04C483.956 273.2 484.076 276.2 487.916 276.2C492.476 276.2 495.716 271.52 497.636 265.76L498.116 266.12C496.796 271.28 492.836 281.96 482.516 281.96ZM541.178 200.6C541.178 194.72 537.578 193.88 532.178 193.88V192.92C537.098 193.04 547.418 191.72 550.778 191H551.618V272C551.618 277.88 555.218 278.84 560.618 278.84V279.8C555.698 279.68 545.378 281 542.018 281.72H541.178V258.68H540.938C537.938 271.76 528.578 281.96 519.338 281.96C510.098 281.96 505.058 271.64 505.058 258.8C505.058 238.88 517.778 225.56 535.418 225.56C536.978 225.56 539.018 225.68 541.178 226.16V200.6ZM515.618 254.96C515.618 266.12 518.738 274.04 524.738 274.04C532.778 274.04 540.938 259.76 541.178 254.24V234.08C538.058 230.24 534.458 227.36 530.138 227.36C521.618 227.36 515.618 238.28 515.618 254.96ZM588.871 281.96C573.991 281.96 564.031 271.28 564.031 254.84C564.031 237.56 574.831 225.56 590.071 225.56C604.711 225.56 614.431 236.48 614.431 253.16C614.431 270.56 604.231 281.96 588.871 281.96ZM575.431 253.28C575.431 269.6 581.191 281 589.351 281C597.271 281 603.031 269.96 603.031 254.6C603.031 238.64 596.551 226.52 588.391 226.52C580.711 226.52 575.431 237.2 575.431 253.28ZM648.899 281.96C634.019 281.96 624.059 271.28 624.059 254.84C624.059 237.56 634.859 225.56 650.099 225.56C664.739 225.56 674.459 236.48 674.459 253.16C674.459 270.56 664.259 281.96 648.899 281.96ZM635.459 253.28C635.459 269.6 641.219 281 649.379 281C657.299 281 663.059 269.96 663.059 254.6C663.059 238.64 656.579 226.52 648.419 226.52C640.739 226.52 635.459 237.2 635.459 253.28ZM682.048 280.04C686.728 279.8 691.168 279.32 691.168 272.96V235.28C691.168 229.4 687.568 228.56 682.168 228.44V227.48C687.088 227.72 697.408 226.28 700.768 225.56H701.608V234.68H702.088C707.728 229.4 713.728 225.56 718.768 225.56C722.728 225.56 725.008 227.96 725.008 231.56C725.008 235.16 722.608 238.28 719.008 238.28C716.608 238.28 713.728 236.6 711.328 231.68C708.328 232.16 705.448 233.48 701.608 236.36V272.96C701.608 279.32 706.048 279.8 713.128 280.04V281C707.488 280.88 685.288 280.88 682.048 281V280.04ZM813.753 281.24C798.033 281 782.313 280.88 766.593 280.88C763.953 280.88 757.233 280.88 752.553 281.12V280.16C761.073 279.8 763.113 277.64 763.113 260.48V217.4C763.113 200.24 761.073 198.08 752.553 197.72V196.76C757.233 197 763.953 197 766.593 197H771.033C773.673 197 780.393 197 785.073 196.76V197.72C776.553 198.08 774.513 200.24 774.513 217.4V273.08C774.513 278.6 775.713 279.68 780.393 279.68C804.513 279.68 810.873 274.64 812.793 251H813.753V281.24ZM819.71 280.04C824.39 279.8 828.59 279.32 828.59 272.96V235.28C828.59 229.4 824.99 228.56 819.59 228.44V227.48C824.51 227.72 834.83 226.28 838.19 225.56H839.03V272.96C839.03 279.32 843.11 279.8 847.79 280.04V281C844.55 280.88 822.95 280.88 819.71 281V280.04ZM825.95 209.96C825.95 206.12 829.19 202.88 833.15 202.88C836.99 202.88 840.23 206.12 840.23 209.96C840.23 213.92 836.99 217.16 833.15 217.16C829.19 217.16 825.95 213.92 825.95 209.96ZM853.139 280.04C857.819 279.8 861.899 279.32 861.899 272.96V228.68H853.379V228.08C856.259 227.96 859.019 227.84 861.899 227.6V217.76C861.899 195.08 875.819 191.96 883.499 191.96C888.419 191.96 895.499 194.12 895.499 199.64C895.499 203 893.219 205.64 889.379 205.64C886.139 205.64 883.379 203.48 883.379 199.88C883.379 197.6 884.579 195.68 886.139 194.48C885.179 193.64 883.979 193.28 882.299 193.28C872.339 193.28 872.339 205.52 872.339 213.44V227.48H890.819V228.68H872.339V272.96C872.339 279.32 878.099 279.8 884.219 280.04V281C880.019 280.88 856.379 280.88 853.139 281V280.04ZM918.628 281.96C903.868 281.96 892.588 270.92 892.588 254.48C892.588 237.56 904.228 225.56 919.468 225.56C931.468 225.56 939.268 233.24 939.268 243.2V244.04L904.468 243.8C903.988 246.2 903.748 248.72 903.748 251.36C903.748 268.52 912.268 277.64 923.428 277.64C930.748 277.64 936.628 274.04 941.188 266.48L941.908 266.96C936.508 276.56 929.188 281.96 918.628 281.96ZM904.708 242.72L925.228 242.12C927.028 242.12 927.508 241.88 927.388 239.36C927.028 232.76 923.188 226.76 918.508 226.76C912.388 226.76 906.868 233.36 904.708 242.72Z" fill="white"/>
<path d="M180.136 106.208L75.9727 101L140.511 281L247.487 237.651L180.136 106.208Z" fill="white"/>
<path d="M0 241.566L32.8606 251.3L61.7493 197.973L78.3884 263.337L78.7771 264.902L127.266 279.27L66.6604 110.252L0 241.566Z" fill="white"/>
</svg>
